<svg width="146.7775390625px" height="78.81999511718749px" xmlns="http://www.w3.org/2000/svg" viewBox="176.61123046875 35.590002441406256 146.7775390625 78.81999511718749" style="background: rgb(58, 57, 61);" preserveAspectRatio="xMidYMid"><defs><linearGradient id="editing-glowing-gradient" x1="0.8146601955249185" x2="0.18533980447508147" y1="0.8885729807284856" y2="0.11142701927151444"><stop offset="0" stop-color="#ff4c60"></stop><stop offset="1" stop-color="#00ffff"></stop></linearGradient><filter id="editing-glowing" x="-100%" y="-100%" width="300%" height="300%"><feGaussianBlur in="SourceGraphic" result="blur" stdDeviation="10"></feGaussianBlur><feMerge><feMergeNode in="blur"></feMergeNode><feMergeNode in="SourceGraphic"></feMergeNode></feMerge></filter></defs><g filter="url(#editing-glowing)"><g transform="translate(203.17500042915344, 92.02000045776367)"><path d="M4.07 0L4.07 0Q3.70 0 3.46-0.24L3.46-0.24L3.46-0.24Q3.22-0.48 3.22-0.85L3.22-0.85L3.22-25.01L3.22-25.01Q3.22-25.42 3.46-25.66L3.46-25.66L3.46-25.66Q3.70-25.90 4.07-25.90L4.07-25.90L5.96-25.90L5.96-25.90Q6.36-25.90 6.60-25.66L6.60-25.66L6.60-25.66Q6.84-25.42 6.84-25.01L6.84-25.01L6.84-14.80L19.57-14.80L19.57-25.01L19.57-25.01Q19.57-25.42 19.81-25.66L19.81-25.66L19.81-25.66Q20.05-25.90 20.42-25.90L20.42-25.90L22.31-25.90L22.31-25.90Q22.72-25.90 22.96-25.66L22.96-25.66L22.96-25.66Q23.20-25.42 23.20-25.01L23.20-25.01L23.20-0.85L23.20-0.85Q23.20-0.48 22.94-0.24L22.94-0.24L22.94-0.24Q22.68 0 22.31 0L22.31 0L20.42 0L20.42 0Q20.05 0 19.81-0.24L19.81-0.24L19.81-0.24Q19.57-0.48 19.57-0.85L19.57-0.85L19.57-11.47L6.84-11.47L6.84-0.85L6.84-0.85Q6.84-0.48 6.59-0.24L6.59-0.24L6.59-0.24Q6.33 0 5.96 0L5.96 0L4.07 0ZM36.33 0.37L36.33 0.37Q32.82 0.37 30.89-1.91L30.89-1.91L30.89-1.91Q28.97-4.18 28.97-7.95L28.97-7.95L28.97-18.39L28.97-18.39Q28.97-18.76 29.21-19.00L29.21-19.00L29.21-19.00Q29.45-19.24 29.82-19.24L29.82-19.24L31.67-19.24L31.67-19.24Q32.04-19.24 32.28-19.00L32.28-19.00L32.28-19.00Q32.52-18.76 32.52-18.39L32.52-18.39L32.52-8.14L32.52-8.14Q32.52-2.63 37.33-2.63L37.33-2.63L37.33-2.63Q39.66-2.63 41.03-4.09L41.03-4.09L41.03-4.09Q42.40-5.55 42.40-8.14L42.40-8.14L42.40-18.39L42.40-18.39Q42.40-18.76 42.64-19.00L42.64-19.00L42.64-19.00Q42.88-19.24 43.25-19.24L43.25-19.24L45.10-19.24L45.10-19.24Q45.47-19.24 45.69-19.00L45.69-19.00L45.69-19.00Q45.92-18.76 45.92-18.39L45.92-18.39L45.92-0.85L45.92-0.85Q45.92-0.48 45.69-0.24L45.69-0.24L45.69-0.24Q45.47 0 45.10 0L45.10 0L43.36 0L43.36 0Q42.99 0 42.75-0.24L42.75-0.24L42.75-0.24Q42.51-0.48 42.51-0.85L42.51-0.85L42.51-2.48L42.51-2.48Q41.48-1.07 40.00-0.35L40.00-0.35L40.00-0.35Q38.52 0.37 36.33 0.37L36.33 0.37ZM52.28 0L52.28 0Q51.91 0 51.67-0.24L51.67-0.24L51.67-0.24Q51.43-0.48 51.43-0.85L51.43-0.85L51.43-18.39L51.43-18.39Q51.43-18.76 51.67-19.00L51.67-19.00L51.67-19.00Q51.91-19.24 52.28-19.24L52.28-19.24L54.02-19.24L54.02-19.24Q54.39-19.24 54.63-19.00L54.63-19.00L54.63-19.00Q54.87-18.76 54.87-18.39L54.87-18.39L54.87-16.76L54.87-16.76Q55.94-18.13 57.41-18.87L57.41-18.87L57.41-18.87Q58.87-19.61 61.05-19.61L61.05-19.61L61.05-19.61Q64.60-19.61 66.58-17.33L66.58-17.33L66.58-17.33Q68.56-15.06 68.56-11.29L68.56-11.29L68.56-0.85L68.56-0.85Q68.56-0.48 68.32-0.24L68.32-0.24L68.32-0.24Q68.08 0 67.71 0L67.71 0L65.86 0L65.86 0Q65.49 0 65.25-0.24L65.25-0.24L65.25-0.24Q65.01-0.48 65.01-0.85L65.01-0.85L65.01-11.10L65.01-11.10Q65.01-13.73 63.73-15.17L63.73-15.17L63.73-15.17Q62.46-16.61 60.05-16.61L60.05-16.61L60.05-16.61Q57.72-16.61 56.35-15.15L56.35-15.15L56.35-15.15Q54.98-13.69 54.98-11.10L54.98-11.10L54.98-0.85L54.98-0.85Q54.98-0.48 54.74-0.24L54.74-0.24L54.74-0.24Q54.50 0 54.13 0L54.13 0L52.28 0ZM81.73 8.14L81.73 8.14Q78.70 8.14 76.85 7.12L76.85 7.12L76.85 7.12Q75.00 6.10 74.22 4.81L74.22 4.81L74.22 4.81Q73.44 3.51 73.37 2.48L73.37 2.48L73.37 2.48Q73.33 2.11 73.61 1.85L73.61 1.85L73.61 1.85Q73.89 1.59 74.22 1.59L74.22 1.59L76.00 1.59L76.00 1.59Q76.33 1.59 76.55 1.76L76.55 1.76L76.55 1.76Q76.77 1.92 76.92 2.37L76.92 2.37L76.92 2.37Q77.37 3.55 78.38 4.42L78.38 4.42L78.38 4.42Q79.40 5.29 81.55 5.29L81.55 5.29L81.55 5.29Q84.29 5.29 85.58 4.13L85.58 4.13L85.58 4.13Q86.88 2.96 86.88 0L86.88 0L86.88-2.52L86.88-2.52Q85.91-1.29 84.43-0.57L84.43-0.57L84.43-0.57Q82.95 0.15 80.92 0.15L80.92 0.15L80.92 0.15Q77.00 0.15 75.05-2.35L75.05-2.35L75.05-2.35Q73.11-4.85 73.00-8.70L73.00-8.70L72.96-9.73L73.00-10.73L73.00-10.73Q73.11-14.54 75.07-17.08L75.07-17.08L75.07-17.08Q77.03-19.61 80.92-19.61L80.92-19.61L80.92-19.61Q84.80-19.61 86.99-16.76L86.99-16.76L86.99-18.35L86.99-18.35Q86.99-18.72 87.23-18.98L87.23-18.98L87.23-18.98Q87.47-19.24 87.84-19.24L87.84-19.24L89.54-19.24L89.54-19.24Q89.91-19.24 90.17-18.98L90.17-18.98L90.17-18.98Q90.43-18.72 90.43-18.35L90.43-18.35L90.43-0.41L90.43-0.41Q90.43 8.14 81.73 8.14L81.73 8.14ZM81.66-2.81L81.66-2.81Q84.17-2.81 85.47-4.48L85.47-4.48L85.47-4.48Q86.76-6.14 86.88-8.44L86.88-8.44L86.88-8.44Q86.91-8.77 86.91-9.73L86.91-9.73L86.91-9.73Q86.91-10.66 86.88-10.99L86.88-10.99L86.88-10.99Q86.76-13.28 85.49-14.95L85.49-14.95L85.49-14.95Q84.21-16.61 81.66-16.61L81.66-16.61L81.66-16.61Q79.03-16.61 77.85-14.98L77.85-14.98L77.85-14.98Q76.66-13.36 76.55-10.69L76.55-10.69L76.52-9.73L76.55-8.73L76.55-8.73Q76.66-6.10 77.85-4.46L77.85-4.46L77.85-4.46Q79.03-2.81 81.66-2.81L81.66-2.81Z" fill="url(#editing-glowing-gradient)"></path></g></g><style>text {
  font-size: 64px;
  font-family: Arial Black;
  dominant-baseline: central;
  text-anchor: middle;
}</style></svg>